<svg xmlns="http://www.w3.org/2000/svg" width="600" height="265.257" viewBox="0 0 600 265.257"><path d="M18.534 215.319H6.944v-22.613H2.077v26.803h16.458v-4.19zm1.244-23.067l-1.775 8.269h3.398l2.795-8.269h-4.418zm18.005 5.626l3.964-5.135h-4.946l-2.869 5.135h3.85zm-1.66 1.925c-5.74 0-9.78 4.152-9.78 10.08 0 5.474 3.965 10.078 10.345 10.078 4.794 0 7.74-2.754 7.74-2.754l-1.852-3.436s-2.453 2.114-5.549 2.114c-2.869 0-5.474-1.736-5.775-5.097H44.54s.114-1.283.114-1.85c0-5.095-2.982-9.135-8.532-9.135zm-4.72 7.701c.453-2.491 2.152-4 4.605-4 2.115 0 3.739 1.395 3.814 4h-8.42zm34.2 9.324l-1.85-3.398s-2.416 2.455-5.662 2.455c-3.662 0-6.003-2.793-6.003-6.04 0-3.284 2.302-5.965 5.851-5.965 3.021 0 5.022 2.076 5.022 2.076l2.114-3.284s-2.38-2.869-7.399-2.869c-6.38 0-10.457 4.606-10.457 10.08 0 5.587 4.077 10.078 10.457 10.078 5.17 0 7.927-3.133 7.927-3.133zm12.719-17.025c-5.853 0-10.571 4.19-10.571 10.08 0 5.927 4.718 10.078 10.608 10.078 5.852 0 10.57-4.151 10.57-10.078 0-5.89-4.718-10.08-10.607-10.08zm.037 16.082c-3.134 0-5.737-2.416-5.737-6.002 0-3.548 2.603-6.003 5.737-6.003 3.096 0 5.7 2.455 5.7 6.003 0 3.586-2.604 6.002-5.7 6.002zm20.08 3.814c.793 0 1.51-.114 1.51-.114v-4.19s-.34.038-.717.038c-1.247 0-1.964-.53-1.964-2.644v-20.083h-4.756v20.802c0 5.51 3.285 6.19 5.928 6.19zm19.931-5.928s-2.453 2.114-5.55 2.114c-2.868 0-5.473-1.736-5.775-5.097h13.289s.113-1.283.113-1.85c0-5.095-2.982-9.135-8.531-9.135-5.739 0-9.778 4.152-9.778 10.08 0 5.474 3.964 10.078 10.344 10.078 4.794 0 7.74-2.754 7.74-2.754l-1.852-3.436zm-6.568-10.268c2.114 0 3.738 1.396 3.813 4.001h-8.42c.455-2.491 2.154-4 4.607-4zm35.03 13.174h.075s-.075.53-.075 1.247v1.585h4.529v-26.803h-4.794v8.456c0 .603.037 1.094.037 1.094h-.075s-1.32-2.453-5.55-2.453c-5.095 0-8.72 3.963-8.72 10.08 0 5.963 3.322 10.078 8.533 10.078 4.416 0 6.04-3.284 6.04-3.284zm-9.74-6.794c0-3.813 2.188-5.964 4.832-5.964 3.209 0 4.794 2.943 4.794 5.926 0 4.266-2.34 6.079-4.832 6.079-2.832 0-4.794-2.38-4.794-6.04zm28.536 10.078c4.793 0 7.739-2.754 7.739-2.754l-1.85-3.436s-2.454 2.114-5.55 2.114c-2.87 0-5.475-1.736-5.776-5.097h13.288s.114-1.283.114-1.85c0-5.095-2.982-9.135-8.531-9.135-5.74 0-9.779 4.152-9.779 10.08 0 5.474 3.965 10.078 10.345 10.078zm-.68-16.458c2.114 0 3.738 1.396 3.813 4.001h-8.42c.455-2.491 2.153-4 4.607-4zm18.419 12.382c-3.134 0-5.248-2.114-5.248-2.114l-2.19 3.36s2.68 2.83 7.476 2.83c4.567 0 7.36-2.566 7.36-5.775 0-6.191-9.362-5.85-9.362-8.57 0-1.207 1.208-1.736 2.454-1.736 2.944 0 4.719 1.66 4.719 1.66l1.774-3.547s-2.113-2.19-6.456-2.19c-4.152 0-7.36 2.076-7.36 5.662 0 6.193 9.363 5.814 9.363 8.684 0 1.131-1.172 1.736-2.53 1.736zm25.214-5.21c0-.906.076-1.774.339-2.566.719-2.304 2.605-3.927 5.172-3.927 2.455 0 3.058 1.586 3.058 3.927v11.4h4.757v-12.382c0-5.097-2.416-7.324-6.682-7.324-3.89 0-6.002 2.378-6.833 4.002h-.075s.075-.605.075-1.322v-2.227h-4.606v19.253h4.795v-8.833zm38.088-.792c0-5.89-4.718-10.08-10.608-10.08-5.852 0-10.57 4.19-10.57 10.08 0 5.927 4.718 10.078 10.607 10.078 5.853 0 10.571-4.151 10.571-10.078zm-16.308 0c0-3.548 2.604-6.003 5.737-6.003 3.097 0 5.7 2.455 5.7 6.003 0 3.586-2.603 6.002-5.7 6.002-3.133 0-5.737-2.416-5.737-6.002zm33.256 6.077h.076s-.076.605-.076 1.36v2.19h4.604v-19.254h-4.793v8.833c0 3.437-1.925 6.495-5.399 6.495-2.38 0-2.982-1.587-2.982-3.926v-11.402h-4.796v12.382c0 5.248 2.569 7.323 6.684 7.323 3.284 0 5.737-2 6.682-4zm19.89 3.55l6.908-19.254h-5.058l-4.001 11.93c-.379 1.132-.642 2.907-.68 2.907h-.076c-.037 0-.302-1.775-.68-2.908l-4.002-11.93h-5.058l6.984 19.254h5.663zm24.46-5.74s-2.454 2.115-5.55 2.115c-2.869 0-5.474-1.736-5.776-5.097h13.289s.114-1.283.114-1.85c0-5.095-2.983-9.135-8.532-9.135-5.739 0-9.778 4.152-9.778 10.08 0 5.474 3.964 10.078 10.344 10.078 4.794 0 7.74-2.754 7.74-2.754l-1.85-3.436zm-6.569-10.267c2.114 0 3.738 1.396 3.814 4.001h-8.42c.454-2.491 2.153-4 4.606-4zm23.365 16.006h4.417v-12.042c0-4.87-2.946-7.664-8.004-7.664-4.567 0-7.55 2.378-7.55 2.378l1.811 3.435s2.53-1.85 5.287-1.85c2.112 0 3.699.87 3.699 3.398v.265h-.642c-3.133 0-11.402.415-11.402 6.53 0 3.851 3.097 6.002 6.532 6.002 4.38 0 5.89-3.396 5.852-3.396h.076s-.076.604-.076 1.36v1.584zm-.303-8.342c0 2.34-1.811 5.058-4.341 5.058-1.963 0-2.908-1.208-2.908-2.491 0-2.681 3.965-3.021 6.42-3.021h.829v.454zm22.611-2.078c0 3.437-1.925 6.495-5.398 6.495-2.38 0-2.983-1.587-2.983-3.926v-11.402h-4.795v12.382c0 5.248 2.568 7.323 6.682 7.323 3.285 0 5.738-2 6.683-4h.076s-.076.604-.076 1.358v2.19h4.605v-19.253h-4.794v8.833zm26.421-8.833h-5.435l-2.983 5.248c-.303.49-.641 1.208-.641 1.208h-.076s-.34-.718-.641-1.208l-2.983-5.248h-5.437l6.191 9.513-6.342 9.74h5.323l3.36-5.588c.264-.413.53-1.018.53-1.018h.075s.263.605.528 1.018l3.359 5.588h5.323l-6.342-9.74 6.191-9.513zm35.747-.453c-3.02 0-5.512 1.887-6.57 3.963h-.075c-.792-2.604-2.679-3.963-5.625-3.963-3.019 0-5.323 2.113-6.266 4.002h-.075s.075-.605.075-1.322v-2.227h-4.606v19.253h4.795v-8.456c0-.868.037-1.736.227-2.455.603-2.453 2.226-4.416 4.718-4.416 2.265 0 2.605 1.774 2.605 3.85v11.477h4.794v-8.456c0-.907.038-1.736.228-2.492.566-2.416 2.188-4.38 4.643-4.38 2.226 0 2.642 1.663 2.642 3.85v11.478h4.795v-12.382c0-5.058-2.304-7.324-6.305-7.324zm21.4-1.925l3.964-5.135h-4.946l-2.869 5.135h3.85zm-1.66 1.925c-5.739 0-9.779 4.152-9.779 10.08 0 5.474 3.964 10.078 10.345 10.078 4.793 0 7.739-2.754 7.739-2.754l-1.85-3.436s-2.455 2.114-5.55 2.114c-2.869 0-5.475-1.736-5.776-5.097h13.288s.114-1.283.114-1.85c0-5.095-2.982-9.135-8.532-9.135zm-4.72 7.701c.454-2.491 2.153-4 4.606-4 2.114 0 3.738 1.395 3.813 4h-8.42zm22.835 4.341v-7.474h4.38v-3.813h-4.38v-5.55h-4.681v5.55h-2.604v3.813h2.491v8.08c0 6.455 5.324 7.248 8.003 7.248.906 0 1.473-.114 1.473-.114v-4.19s-.34.075-.869.075c-1.321 0-3.813-.453-3.813-3.625zm8.606 7.664h4.795v-19.253H455.7v19.253zm4.757-26.803H455.7v4.266h4.757v-4.266zm13.74 7.097c-5.738 0-9.778 4.152-9.778 10.08 0 5.474 3.964 10.078 10.345 10.078 4.793 0 7.739-2.754 7.739-2.754l-1.85-3.436s-2.454 2.114-5.551 2.114c-2.868 0-5.474-1.736-5.776-5.097h13.29s.113-1.283.113-1.85c0-5.095-2.983-9.135-8.532-9.135zm-4.72 7.701c.454-2.491 2.153-4 4.607-4 2.114 0 3.737 1.395 3.813 4h-8.42zm21.817-2.567h-.075s.075-.642.075-1.359v-3.322h-4.606v19.253h4.796v-7.625c0-1.133.112-2.19.415-3.133.905-2.87 3.209-4.04 5.246-4.04.642 0 1.133.075 1.133.075v-4.72s-.416-.075-.868-.075c-2.944 0-5.248 2.19-6.116 4.946zm14.08.679c0-1.207 1.208-1.736 2.454-1.736 2.944 0 4.718 1.66 4.718 1.66l1.775-3.547s-2.113-2.19-6.456-2.19c-4.152 0-7.36 2.076-7.36 5.662 0 6.193 9.362 5.814 9.362 8.684 0 1.131-1.17 1.736-2.53 1.736-3.133 0-5.247-2.114-5.247-2.114l-2.19 3.36s2.68 2.83 7.476 2.83c4.567 0 7.36-2.566 7.36-5.775 0-6.191-9.362-5.85-9.362-8.57zM14.307 246.458c0 .603.037 1.094.037 1.094h-.075s-1.32-2.453-5.55-2.453C3.624 245.1 0 249.062 0 255.18c0 5.963 3.32 10.078 8.532 10.078 4.416 0 6.04-3.284 6.04-3.284h.075s-.075.53-.075 1.247v1.585H19.1v-26.803h-4.794v8.456zM9.626 261.22c-2.832 0-4.794-2.379-4.794-6.04 0-3.813 2.188-5.964 4.832-5.964 3.209 0 4.794 2.943 4.794 5.926 0 4.266-2.34 6.078-4.832 6.078zM32.8 245.1c-5.738 0-9.778 4.152-9.778 10.08 0 5.474 3.964 10.078 10.345 10.078 4.793 0 7.739-2.754 7.739-2.754l-1.851-3.437s-2.454 2.115-5.55 2.115c-2.868 0-5.474-1.736-5.775-5.097h13.288s.114-1.283.114-1.85c0-5.095-2.982-9.135-8.532-9.135zm-4.72 7.701c.455-2.492 2.154-4.001 4.606-4.001 2.115 0 3.739 1.396 3.814 4.001h-8.42zm30.877 5.285v-20.083H54.2v20.801c0 5.511 3.286 6.191 5.928 6.191.793 0 1.51-.114 1.51-.114v-4.19s-.34.038-.717.038c-1.245 0-1.964-.529-1.964-2.643zm13.4-12.986c-4.567 0-7.55 2.378-7.55 2.378l1.812 3.435s2.53-1.85 5.286-1.85c2.113 0 3.7.87 3.7 3.398v.265h-.642c-3.133 0-11.402.415-11.402 6.53 0 3.851 3.096 6.002 6.531 6.002 4.38 0 5.89-3.396 5.853-3.396h.075s-.075.603-.075 1.359v1.585h4.417v-12.042c0-4.87-2.946-7.664-8.004-7.664zm3.285 11.364c0 2.34-1.812 5.058-4.341 5.058-1.963 0-2.908-1.208-2.908-2.491 0-2.681 3.965-3.022 6.42-3.022h.829v.455zm28.348 4.718c-3.663 0-6.004-2.793-6.004-6.04 0-3.284 2.302-5.965 5.851-5.965 3.021 0 5.022 2.076 5.022 2.076l2.114-3.284s-2.38-2.869-7.399-2.869c-6.38 0-10.457 4.606-10.457 10.08 0 5.587 4.077 10.078 10.457 10.078 5.17 0 7.927-3.133 7.927-3.133l-1.85-3.398s-2.416 2.455-5.661 2.455zm20.231-16.082c-5.852 0-10.57 4.19-10.57 10.08 0 5.927 4.718 10.078 10.607 10.078 5.853 0 10.571-4.151 10.571-10.078 0-5.89-4.718-10.08-10.608-10.08zm.037 16.082c-3.133 0-5.737-2.416-5.737-6.002 0-3.548 2.604-6.003 5.737-6.003 3.097 0 5.702 2.455 5.702 6.003 0 3.586-2.605 6.002-5.702 6.002zm37.56-16.082c-3.02 0-5.512 1.887-6.57 3.963h-.075c-.792-2.604-2.679-3.963-5.624-3.963-3.02 0-5.324 2.113-6.267 4.001h-.075s.075-.604.075-1.321v-2.227h-4.606v19.253h4.796v-8.456c0-.868.036-1.736.226-2.455.603-2.453 2.226-4.417 4.718-4.417 2.265 0 2.605 1.775 2.605 3.85v11.478h4.794v-8.456c0-.907.039-1.736.228-2.492.566-2.416 2.188-4.38 4.643-4.38 2.226 0 2.642 1.663 2.642 3.85v11.478h4.795v-12.382c0-5.058-2.303-7.324-6.305-7.324zm34.46 0c-3.02 0-5.512 1.887-6.569 3.963h-.075c-.793-2.604-2.68-3.963-5.625-3.963-3.02 0-5.323 2.113-6.267 4.001h-.075s.075-.604.075-1.321v-2.227h-4.606v19.253h4.796v-8.456c0-.868.037-1.736.226-2.455.603-2.453 2.227-4.417 4.718-4.417 2.265 0 2.606 1.775 2.606 3.85v11.478h4.793v-8.456c0-.907.039-1.736.228-2.492.567-2.416 2.188-4.38 4.643-4.38 2.227 0 2.642 1.663 2.642 3.85v11.478h4.795v-12.382c0-5.058-2.303-7.324-6.305-7.324zm24.232 9.286c0 3.437-1.925 6.494-5.399 6.494-2.379 0-2.982-1.586-2.982-3.926v-11.401h-4.795v12.382c0 5.248 2.568 7.323 6.683 7.323 3.284 0 5.737-2 6.682-4h.076s-.076.604-.076 1.358v2.19h4.604v-19.253h-4.793v8.833zm21.515-9.286c-3.889 0-6.001 2.378-6.832 4.001h-.076s.076-.604.076-1.321v-2.227h-4.606v19.253h4.795v-8.833c0-.907.075-1.775.338-2.567.72-2.304 2.606-3.928 5.173-3.928 2.454 0 3.057 1.587 3.057 3.928v11.4h4.757v-12.382c0-5.097-2.416-7.324-6.682-7.324zm11.699-2.831h4.757v-4.266h-4.757v4.266zm0 22.537h4.795v-19.253h-4.795v19.253zm19.555-3.624c-3.663 0-6.004-2.793-6.004-6.04 0-3.284 2.302-5.965 5.851-5.965 3.02 0 5.021 2.076 5.021 2.076l2.115-3.284s-2.379-2.869-7.399-2.869c-6.38 0-10.457 4.606-10.457 10.08 0 5.587 4.077 10.078 10.457 10.078 5.17 0 7.927-3.133 7.927-3.133l-1.85-3.398s-2.416 2.455-5.661 2.455zm18.268-16.082c-4.568 0-7.55 2.378-7.55 2.378l1.811 3.435s2.53-1.85 5.286-1.85c2.115 0 3.7.87 3.7 3.398v.265h-.642c-3.133 0-11.402.415-11.402 6.53 0 3.851 3.097 6.002 6.532 6.002 4.38 0 5.889-3.396 5.852-3.396h.075s-.075.603-.075 1.359v1.585h4.417v-12.042c0-4.87-2.946-7.664-8.004-7.664zm3.284 11.364c0 2.34-1.812 5.058-4.342 5.058-1.962 0-2.906-1.208-2.906-2.491 0-2.681 3.964-3.022 6.419-3.022h.829v.455zm15.21.678v-7.474h4.38v-3.814h-4.38v-5.549h-4.681v5.55h-2.604v3.813h2.491v8.08c0 6.455 5.324 7.247 8.004 7.247.905 0 1.471-.114 1.471-.114v-4.19s-.34.076-.867.076c-1.322 0-3.814-.453-3.814-3.625zm8.606 7.664h4.795v-19.253h-4.795v19.253zm0-26.803v4.266h4.756v-4.266h-4.756zm19.214 7.097c-5.852 0-10.57 4.19-10.57 10.08 0 5.927 4.718 10.078 10.607 10.078 5.853 0 10.571-4.151 10.571-10.078 0-5.89-4.718-10.08-10.608-10.08zm.037 16.082c-3.133 0-5.737-2.416-5.737-6.002 0-3.548 2.604-6.003 5.737-6.003 3.097 0 5.7 2.455 5.7 6.003 0 3.586-2.603 6.002-5.7 6.002zm25.857-16.082c-3.89 0-6.002 2.378-6.833 4.001h-.075s.075-.604.075-1.321v-2.227h-4.606v19.253h4.795v-8.833c0-.907.076-1.775.339-2.567.719-2.304 2.605-3.928 5.172-3.928 2.455 0 3.058 1.587 3.058 3.928v11.4h4.757v-12.382c0-5.097-2.416-7.324-6.682-7.324zM475.646 2.621h-1.715v108.444h1.716V2.62zm-179.238 0h-1.715v108.444h1.715V2.62zm-159.582 0h-1.716v108.444h1.716V2.62zm-38.43 71.666l-2.171-.154c-9.46 23.729-17.68 34.119-39.393 34.119h-18.3V56.607h8.374c12.873 0 19.696 4.807 23.884 21.247h2.016V32.413H70.79C66.602 48.853 59.78 53.66 46.906 53.66h-8.374V6.049h18.61c18.455 0 25.59 10.235 34.586 32.258l2.171-.311L93.433 3.1H3.482v1.862c13.49.464 16.904 4.031 16.904 10.236v83.749c0 6.358-3.413 9.77-16.904 10.235v2.016H97.62l.776-36.912zm130.446 34.896c-13.957-.466-17.215-3.723-17.215-10.235v-40.79h8.375c12.873 0 19.385 4.652 23.574 21.092h2.016V34.118h-2.016c-4.189 16.44-10.701 20.938-23.574 20.938h-8.375V6.049h17.06c19.23 0 27.14 9.77 36.6 32.878l2.018-.156-1.242-35.67h-89.486v2.016c13.493.466 16.905 3.877 16.905 10.082v83.749c0 6.358-3.412 9.77-16.905 10.235v2.016h52.265v-2.016zm135.252 0c-14.113-2.327-16.75-7.6-9.771-25.9l5.272-13.493h36.602l9.306 26.676c3.101 8.684.93 11.941-13.803 12.717v2.016h50.869v-2.016c-11.942-1.707-14.267-4.343-18.145-14.888L389.684 0h-6.514l-33.035 83.593c-6.514 16.75-12.097 22.799-22.332 25.59v2.016h36.291v-2.016zm14.267-88.246h.622L395.11 66.69h-34.43l17.68-45.752zm176.043 42.649c34.43 0 45.596-14.889 45.596-30.707C600 15.974 589.298 3.1 555.18 3.1h-46.062v1.862c13.492.464 16.905 4.031 16.905 10.236v83.749c0 6.358-3.413 9.77-16.905 10.235v2.016h53.04v-2.016c-14.734-.466-17.99-3.567-17.99-10.235V63.586h10.236zM544.168 6.049h11.012c20.161 0 25.124 11.165 25.124 26.674 0 17.681-4.498 27.917-25.746 27.917h-10.39V6.05z"/></svg>